_________________________  Visit us at _________________________
  
http://p2pdl.com  ____________________________  http://p2pdl.com

Miss Bala 2011 BRRip 720p x264 AAC - PRiSTiNE

Genre: Crime | Drama | Thriller
Plot: After entering a beauty contest in Tijuana, a young woman witnesses 
drug-related murders and is forced to do the gang's bidding.
Director: Gerardo Naranjo
Stars: Stephanie Sigman, Irene Azuela, Jose Yenque
Rated: Rated R for language, some brutal violence and sexuality

Info: 
http://www.imdb.com/title/tt1911600/

General
Complete name                  : Miss Bala 2011 BRRip 720p x264 AAC - PRiSTiNE.mp4
Format                         : MPEG-4
Format profile                 : Base Media
Codec ID                       : isom
File size                      : 637 MiB
Duration                       : 1h 52mn
Overall bit rate mode          : Variable
Overall bit rate               : 788 Kbps

Source                         : 720p BluRay PHD (Thanks)

Video
Format                         : AVC
Format/Info                    : Advanced Video Codec
Format profile                 : High 10@L4.1
Bit rate                       : 745 Kbps
Width                          : 1 280 pixels
Height                         : 544 pixels
Display aspect ratio           : 2.35:1
Frame rate mode                : Constant
Frame rate                     : 23.976 fps
Color space                    : YUV
Chroma subsampling             : 4:2:0
Bit depth                      : 10 bits
Scan type                      : Progressive
Bits/(Pixel*Frame)             : 0.045
Stream size                    : 602 MiB (95%)
Writing library                : x264 core 129 r2245 bc13772

Audio
Format                         : AAC
Bit rate mode                  : Variable
Bit rate                       : 40.0 Kbps
Channel(s)                     : 2 channels
Channel positions              : Front: L R
Sampling rate                  : 44.1 KHz / 22.05 KHz
Stream size                    : 32.3 MiB (5%)
Language                       : Spanish

Subtitle                       : Yes (English)

Screens: 
http://ultraimg.com/images/JKNfz.jpg 
http://ultraimg.com/images/5XDp3.jpg 
http://ultraimg.com/images/ZoBO8.jpg 
http://ultraimg.com/images/huQI3.jpg

Thumbs: 
http://ultraimg.com/images/6jkqL.jpg
----------------------------------------------------------------------------------------------------
Encoded using revolutionary 10bit encoding, which enables us to provide you more crispier 
and sharper images at small sizes, just make sure you follow our instructions without a fault.
Recommend to you to use latest version of VLC player. Install K-Lite Codec Pack or shark007 codecs
in case of any kind of problem in playback (For non-VLC Media Player users). Alternatively, install
Core AVC codecs, the fastest decoder that there is coupled with Community Center Codec Pack and play
on Windows Media Player Classic. Check sample to be sure.
Enjoy!